<svg id="Capa_1" enable-background="new 0 0 512 512" height="512" viewBox="0 0 512 512" width="512" xmlns="http://www.w3.org/2000/svg"><g><g><g><circle cx="256" cy="327.281" fill="#31a7fb" r="177.219"/><path d="m363.912 189.378c0 59.501-48.41 107.911-107.911 107.911s-107.911-48.409-107.911-107.911c0-.744 0-1.633.031-2.708 29.875-22.949 67.285-36.604 107.88-36.604s78.005 13.656 107.88 36.604c.031 1.075.031 1.964.031 2.708z" fill="#1c96f9"/><path d="m195.956 355.396v23.386c0 1.5-.391 2.975-1.133 4.279l-47.818 83.957c-41.525-32.43-68.223-82.964-68.223-139.739 0-32.136 8.55-62.266 23.499-88.246l53.639 25.251c2.599 1.224 4.421 3.658 4.861 6.497l2.012 12.969c.551 3.548-1.149 7.068-4.271 8.842l-22.797 12.958c-2.57 1.461-4.216 4.134-4.363 7.087l-.933 18.777c-.193 3.885 2.233 7.421 5.927 8.64l25.608 8.446c1.15.379 2.366.513 3.571.392l20.913-2.097c5.09-.512 9.508 3.485 9.508 8.601z" fill="#27e19d"/><path d="m433.218 327.278c0 97.877-79.341 177.218-177.218 177.218-19.358 0-37.998-3.104-55.436-8.853 5.862.588 11.801.89 17.81.89 97.877 0 177.218-79.341 177.218-177.218 0-78.511-51.052-145.1-121.782-168.365 89.517 8.923 159.408 84.46 159.408 176.328z" fill="#1c96f9"/><path d="m433.221 327.28c0 62.4-32.25 117.26-80.98 148.83h-.01l-44.68-24.31c-.94-.51-1.95-.84-3.01-.98l-19.19-2.53c-4.06-.53-7.19-3.84-7.49-7.93l-2.15-28.89c-.25-3.46 1.59-6.75 4.68-8.33l67.69-34.68c2.13-1.09 3.71-3.01 4.37-5.31l15.44-53.78c.67-2.34.33-4.84-.94-6.91l-9.21-15.03c-1.65-2.69-4.64-4.27-7.8-4.12l-17.83.87c-4.07.2-7.46 3.23-8.11 7.26l-6.27 38.74c-.52 3.18-2.76 5.82-5.83 6.83l-29.7 9.79c-4 1.31-8.36-.43-10.34-4.14l-18.77-35.18c-1.1-2.07-1.32-4.49-.6-6.72l6.83-21.27c.9-2.78 3.13-4.92 5.95-5.69l28.23-7.73c2.86-.79 5.13-2.99 5.99-5.84l14.97-49.46c1.35-4.47-1.1-9.21-5.53-10.7l-23.69-7.95c-2.06-.69-4.31-.58-6.29.31l-20.23 9.08c-1.76.8-3.74.97-5.62.51l-27.95-6.94c-2.79-.69-5.05-2.73-6.04-5.42l-11.98-32.77v-.01c15.52-4.44 31.92-6.82 48.87-6.82 97.87 0 177.22 79.34 177.22 177.22z" fill="#27e19d"/><path d="m433.221 327.28c0 62.4-32.25 117.26-80.98 148.83h-.01l-27.55-14.99c43.06-32.33 70.91-83.82 70.91-141.8 0-31.73-8.34-61.5-22.94-87.25-4.09-7.2-14.58-6.7-17.93.87-16.78 37.87-54.71 64.35-98.72 64.35-.8 0-1.59-.01-2.39-.03l5.71-17.77c.9-2.78 3.13-4.92 5.95-5.69l28.23-7.73c2.86-.79 5.13-2.99 5.99-5.84l14.97-49.46c1.35-4.47-1.1-9.21-5.53-10.7l-23.69-7.95c-2.06-.69-4.31-.58-6.29.31l-20.23 9.08c-1.76.8-3.74.97-5.62.51l-27.95-6.94c-2.79-.69-5.05-2.73-6.04-5.42l-11.98-32.77v-.01c15.52-4.44 31.92-6.82 48.87-6.82 97.87 0 177.22 79.34 177.22 177.22z" fill="#26d192"/></g></g><g><path d="m343.241 189.378c0 48.182-39.059 87.241-87.241 87.241s-87.241-39.059-87.241-87.241c0-38.947 57.004-139.833 78.855-177.073 3.759-6.407 13.012-6.407 16.771 0 21.852 37.24 78.856 138.126 78.856 177.073z" fill="#b5dbfd"/><path d="m343.237 189.378c0 48.182-39.054 87.236-87.236 87.236-7.712 0-15.185-1.003-22.308-2.884 37.38-9.851 64.929-43.882 64.929-84.352 0-32.252-39.075-106.96-64.929-152.847 5.365-9.531 10.161-17.821 13.924-24.231 3.752-6.399 13.015-6.399 16.767 0 21.853 37.246 78.853 138.127 78.853 177.078z" fill="#8dcafc"/><path d="m347.003 166.5c-5.944-21.846-18.966-52.229-38.948-90.801-1.905-3.678-6.43-5.114-10.109-3.21-3.678 1.905-5.114 6.432-3.209 10.109 33.89 65.423 41.004 94.178 41.004 106.78 0 43.969-35.771 79.741-79.74 79.741-16.001 0-31.435-4.72-44.63-13.65-3.431-2.32-8.093-1.423-10.415 2.008-2.321 3.431-1.422 8.094 2.008 10.415 14.036 9.498 30.196 14.976 47.058 16.027l-4.675 14.546c-1.33 4.137-.919 8.709 1.127 12.542l18.773 35.179c3.706 6.945 11.822 10.196 19.299 7.733l29.705-9.791c5.747-1.894 9.917-6.781 10.884-12.753l6.272-38.739c.086-.531.538-.935 1.075-.961l17.829-.87c.409-.021.814.188 1.033.546l9.21 15.029c.168.274.214.607.125.916l-15.441 53.789c-.087.303-.298.559-.578.703l-15.748 8.068c-3.687 1.889-5.144 6.408-3.255 10.094 1.328 2.592 3.956 4.083 6.681 4.082 1.15 0 2.319-.266 3.414-.827l15.748-8.068c3.957-2.028 6.93-5.642 8.156-9.915l15.441-53.788c1.246-4.341.607-9.039-1.753-12.891l-9.211-15.03c-3.082-5.03-8.645-7.977-14.553-7.691l-17.83.87c-7.568.37-13.939 6.067-15.15 13.546l-6.272 38.74c-.069.423-.364.77-.772.904l-29.706 9.791c-.526.177-1.106-.056-1.368-.549l-18.774-35.18c-.145-.271-.174-.596-.079-.889l6.251-19.45c47.616-4.955 84.864-45.322 84.864-94.227 0-.952-.041-1.953-.101-2.979 46.608 31.382 75.08 84.226 75.08 140.881 0 58.079-29.33 109.43-73.951 140.041l-40.641-22.112c-1.748-.95-3.634-1.563-5.604-1.823l-19.188-2.529c-.536-.071-.953-.513-.993-1.051l-2.148-28.888c-.034-.46.209-.894.62-1.104l20.158-10.328c3.687-1.889 5.144-6.408 3.255-10.095-1.89-3.687-6.409-5.144-10.095-3.255l-20.158 10.328c-5.791 2.967-9.222 9.077-8.739 15.566l2.148 28.888c.564 7.587 6.448 13.815 13.992 14.81l19.189 2.529c.141.019.275.063.398.129l33.064 17.99c-24.096 13.146-51.706 20.624-81.03 20.624-36.995 0-71.256-11.906-99.172-32.076l44.513-78.153c1.384-2.43 2.115-5.193 2.115-7.989v-23.386c0-4.554-1.937-8.917-5.313-11.972-3.377-3.056-7.909-4.548-12.443-4.093l-20.912 2.097c-.162.016-.32-.001-.474-.052l-25.609-8.446c-.487-.161-.81-.632-.785-1.145l.933-18.776c.02-.394.236-.746.578-.94l22.797-12.958c5.792-3.292 8.998-9.928 7.977-16.512l-2.012-12.97c-.824-5.309-4.217-9.844-9.078-12.132l-46.007-21.658c12.398-19.385 28.734-36.298 48.257-49.444-.062 1.023-.103 2.024-.103 2.982 0 17.938 5.043 35.407 14.584 50.516 1.427 2.259 3.86 3.497 6.349 3.497 1.369 0 2.754-.375 3.997-1.16 3.502-2.211 4.549-6.843 2.337-10.346-8.025-12.709-12.267-27.408-12.267-42.507 0-37.712 59.567-142.163 77.824-173.278.562-.957 1.442-1.1 1.916-1.1.475 0 1.356.143 1.917 1.1 6.672 11.373 13.558 23.462 19.914 34.959 2.003 3.624 6.564 4.94 10.192 2.936 3.625-2.004 4.938-6.567 2.935-10.192-6.508-11.773-13.271-23.647-20.104-35.294-3.129-5.328-8.681-8.508-14.856-8.508-6.174 0-11.727 3.181-14.853 8.509-20.254 34.518-63.151 110.727-76.104 157.973-.055.03-.112.053-.167.084-57.732 32.801-93.596 94.384-93.596 160.715.001 101.854 82.865 184.719 184.72 184.719s184.72-82.865 184.72-184.719c-.001-66.394-35.909-127.994-93.717-160.781zm-260.722 160.781c0-27.738 6.846-54.563 19.286-78.412l47.158 22.2c.345.163.586.484.645.861l2.012 12.969c.073.467-.155.938-.566 1.172l-22.797 12.958c-4.826 2.743-7.872 7.691-8.147 13.236l-.933 18.777c-.359 7.232 4.192 13.867 11.068 16.134l25.606 8.445c2.161.713 4.405.96 6.67.732l20.913-2.097c.417-.041.711.135.883.291s.377.43.377.85v23.386c0 .199-.052.395-.15.567l-43.377 76.158c-35.905-31.144-58.648-77.079-58.648-128.227z"/></g></g></svg>