<svg id="Capa_1" enable-background="new 0 0 512 512" height="512" viewBox="0 0 512 512" width="512" xmlns="http://www.w3.org/2000/svg"><g><g><g><g><path d="m378.694 313.113-15.906 55.403c-1.267 4.409-4.327 8.128-8.406 10.219l-69.733 35.716c-.422.216-.67.68-.639 1.154l2.215 29.741c.041.567.464 1.01 1.01 1.082l19.779 2.606c2.029.278 3.976.907 5.779 1.885l49.521 26.95c-29.937 21.48-66.653 34.131-106.314 34.131-45.163 0-86.484-16.4-118.368-43.556l48.635-85.371c.093-.175.155-.381.155-.587v-24.086c0-.433-.216-.721-.391-.876-.175-.165-.484-.34-.917-.299l-21.541 2.153c-2.328.237-4.646-.021-6.871-.752l-26.373-8.695c-7.088-2.339-11.775-9.179-11.404-16.627l.958-19.347c.288-5.707 3.42-10.807 8.396-13.629l23.478-13.351c.433-.237.659-.721.587-1.205l-2.071-13.362c-.062-.391-.309-.721-.67-.886l-55.713-26.135c24.065-46.338 67.415-81.055 119.419-93.51l11.96 33.162c.113.33.422.608.804.701l28.804 7.149c.237.062.505.041.721-.062l20.882-9.364c3.822-1.721 8.118-1.937 12.094-.598l24.415 8.19c8.571 2.885 13.248 11.93 10.631 20.583l-15.422 50.953c-1.659 5.501-5.965 9.694-11.507 11.229l-29.103 7.963c-.391.113-.69.402-.814.793l-7.036 21.891c-.103.319-.072.649.082.937l19.336 36.232c.268.505.865.742 1.432.556l30.576-10.075c.422-.144.731-.505.804-.948l6.459-39.899c1.236-7.706 7.798-13.578 15.597-13.959l18.368-.896c6.068-.288 11.826 2.74 14.999 7.922l9.488 15.484c2.443 3.967 3.103 8.809 1.815 13.29z" fill="#31a7fb"/><path d="m323.621 211.64-15.422 50.953c-1.659 5.501-5.965 9.694-11.507 11.229l-29.103 7.963c-.391.113-.69.402-.814.793l-5.079 15.813c-1.885.093-3.781.144-5.697.144-61.296 0-111.167-49.871-111.167-111.167 0-.773 0-1.69.031-2.792 19.955-15.329 43.185-26.64 68.456-32.688l11.95 33.151c.113.33.422.608.804.701l28.804 7.149c.237.062.505.041.721-.062l20.882-9.364c3.822-1.721 8.118-1.937 12.094-.598l24.415 8.19c8.571 2.887 13.248 11.932 10.632 20.585z" fill="#1c96f9"/><path d="m194.142 358.396v24.091c0 1.546-.402 3.065-1.167 4.408l-49.262 86.491c-42.778-33.409-70.282-85.467-70.282-143.957 0-33.106 8.809-64.145 24.208-90.909l55.258 26.013c2.677 1.26 4.554 3.768 5.008 6.693l2.073 13.361c.567 3.655-1.184 7.281-4.4 9.109l-23.485 13.349c-2.648 1.505-4.343 4.259-4.494 7.301l-.961 19.344c-.199 4.003 2.3 7.645 6.106 8.9l26.381 8.701c1.184.391 2.437.528 3.678.404l21.544-2.16c5.244-.527 9.795 3.591 9.795 8.861z" fill="#27e19d"/><path d="m362.314 477.87c-29.937 21.479-66.653 34.13-106.314 34.13-19.944 0-39.147-3.204-57.113-9.127 6.037.608 12.156.917 18.348.917 44.112 0 84.568-15.638 116.122-41.681h.01z" fill="#1c96f9"/><path d="m438.568 329.431c0 64.283-33.223 120.799-83.424 153.322h-.01l-46.029-25.044c-.968-.525-2.009-.865-3.101-1.01l-19.769-2.606c-4.183-.546-7.407-3.956-7.716-8.169l-2.215-29.762c-.258-3.564 1.638-6.954 4.821-8.581l69.733-35.727c2.194-1.123 3.822-3.101 4.502-5.47l15.906-55.403c.69-2.411.34-4.986-.968-7.119l-9.488-15.484c-1.7-2.771-4.78-4.399-8.035-4.244l-18.368.896c-4.193.206-7.685 3.327-8.355 7.479l-6.459 39.909c-.536 3.276-2.843 5.996-6.006 7.036l-30.597 10.086c-4.121 1.349-8.612-.443-10.652-4.265l-19.336-36.242c-1.133-2.133-1.36-4.625-.618-6.923l7.036-21.912c.927-2.864 3.224-5.068 6.13-5.862l29.082-7.963c2.946-.814 5.285-3.08 6.171-6.016l15.422-50.953c1.391-4.605-1.133-9.488-5.697-11.023l-24.405-8.19c-2.122-.711-4.44-.597-6.48.319l-20.841 9.354c-1.813.824-3.853.999-5.79.525l-28.794-7.149c-2.874-.711-5.202-2.813-6.222-5.584l-12.342-33.759v-.01c15.988-4.574 32.883-7.026 50.345-7.026 100.824.002 182.569 81.736 182.569 182.57z" fill="#27e19d"/><path d="m438.568 329.431c0 64.283-33.223 120.799-83.424 153.322h-.01l-28.382-15.442c44.36-33.306 73.05-86.35 73.05-146.08 0-32.688-8.592-63.356-23.632-89.883-4.213-7.417-15.02-6.902-18.471.896-17.286 39.013-56.361 66.292-101.699 66.292-.824 0-1.638-.01-2.462-.031l5.882-18.306c.927-2.864 3.224-5.068 6.13-5.862l29.082-7.963c2.946-.814 5.285-3.08 6.171-6.016l15.422-50.953c1.391-4.605-1.133-9.488-5.697-11.023l-24.405-8.19c-2.122-.711-4.44-.597-6.48.319l-20.841 9.354c-1.813.824-3.853.999-5.79.525l-28.794-7.149c-2.874-.711-5.202-2.813-6.222-5.584l-12.342-33.759v-.01c15.988-4.574 32.883-7.026 50.345-7.026 100.824.001 182.569 81.735 182.569 182.569z" fill="#26d192"/></g></g></g><g><path d="m345.873 187.367c0 49.636-40.238 89.874-89.874 89.874s-89.874-40.238-89.874-89.874c0-40.123 58.725-144.053 81.235-182.417 3.872-6.6 13.405-6.6 17.277 0 22.511 38.364 81.236 142.295 81.236 182.417z" fill="#b5dbfd"/><path d="m345.869 187.368c0 49.636-40.233 89.869-89.869 89.869-7.944 0-15.644-1.033-22.981-2.971 38.508-10.149 66.888-45.206 66.888-86.898 0-33.226-40.254-110.188-66.888-157.46 5.527-9.819 10.468-18.359 14.345-24.962 3.866-6.592 13.407-6.592 17.273 0 22.512 38.369 81.232 142.295 81.232 182.422z" fill="#8dcafc"/></g></g></svg>