<svg id="Capa_1" enable-background="new 0 0 512 512" height="512" viewBox="0 0 512 512" width="512" xmlns="http://www.w3.org/2000/svg" xmlns:xlink="http://www.w3.org/1999/xlink"><linearGradient id="SVGID_1_" gradientUnits="userSpaceOnUse" x1="256" x2="256" y1="512" y2="0"><stop offset="0" stop-color="#addcff"/><stop offset=".5028" stop-color="#eaf6ff"/><stop offset="1" stop-color="#eaf6ff"/></linearGradient><linearGradient id="SVGID_2_" gradientUnits="userSpaceOnUse" x1="197.336" x2="285.207" y1="314.661" y2="226.79"><stop offset="0" stop-color="#00c0ff"/><stop offset="1" stop-color="#5558ff"/></linearGradient><g><g><circle cx="256" cy="256" fill="url(#SVGID_1_)" r="256"/></g><g><g><path d="m237.658 191.794c1.665-1.665 2.6-3.922 2.6-6.276s-.935-4.612-2.6-6.276l-71.642-71.642c-3.466-3.467-9.086-3.467-12.553 0l-18.829 18.829 84.194 84.194zm166.739 154.186-71.642-71.641c-3.466-3.467-9.086-3.467-12.552 0l-18.83 18.829 84.194 84.194 18.83-18.829c1.665-1.665 2.6-3.922 2.6-6.276s-.935-4.612-2.6-6.277zm-121.854-46.535-69.992-69.992c-.001-.001-.002-.002-.003-.003l-90.117-90.117c-25.072 31.337-23.1 77.324 5.926 106.35l137.957 137.957c15.574 15.573 36.032 23.36 56.489 23.36 17.67 0 35.338-5.815 49.861-17.435l-90.114-90.115c-.002-.002-.005-.003-.007-.005z" fill="url(#SVGID_2_)"/></g></g></g></svg>