<svg id="Filled_cutting_cut_Ex" height="512" viewBox="0 0 512 512" width="512" xmlns="http://www.w3.org/2000/svg" data-name="Filled cutting cut Ex"><g><circle cx="258.49" cy="256.196" fill="#80daff" r="232.196"/><g fill="#25b1fa"><path d="m345.439 381.5247-2.7576 12.4089a30 30 0 0 1 -36.5614 22.5964l-14.1005-3.525a30 30 0 0 0 -31.853 11.9l-39.8057 60.3535a232.3938 232.3938 0 0 0 234.9837-105.8946l-73.8745-20.5631a30 30 0 0 0 -36.031 22.7239z"/><path d="m315.3684 227.8948 7.68 13.44a30 30 0 0 0 37.1889 12.97l32.1346-12.8537a20 20 0 0 1 27.2268 15.7411l1.265 8.8548a20 20 0 0 0 24.65 16.5745l44.7475-12.533c.2714-4.5975.4253-9.2265.4253-13.8922a231.4757 231.4757 0 0 0 -69.368-165.5149l-101.1159 101.116a30 30 0 0 0 -4.8342 36.0974z"/></g><path d="m272 304v16.6191a8 8 0 0 0 10.53 7.5895l26.94-8.98a8 8 0 0 0 3.87-12.3895l-12.8-17.0662a8 8 0 0 0 -10.8376-1.8564l-14.1407 9.4272a8 8 0 0 0 -3.5617 6.6563z" fill="#25b1fa"/><path d="m280.0132 336.6152a15.9923 15.9923 0 0 1 -16.0132-15.9961v-16.6191a15.9661 15.9661 0 0 1 7.1255-13.313l14.14-9.4267a16.0055 16.0055 0 0 1 21.6753 3.7133l12.7993 17.065a16 16 0 0 1 -7.7401 24.7793l-26.94 8.98a15.9532 15.9532 0 0 1 -5.0468.8173zm-.0132-32.6152v16.6191l26.94-8.98-12.8-17.066z"/><path d="m331.6305 89.4008-13.5072-8.1043a9 9 0 0 0 -13.63 7.7174v16.2086a9 9 0 0 0 13.63 7.7174l13.5072-8.1043a9 9 0 0 0 0-15.4348z" fill="#25b1fa"/><path d="m313.498 122.2529a17.073 17.073 0 0 1 -17.0053-17.03v-16.2092a17 17 0 0 1 25.7466-14.5772l13.5073 8.1045a17 17 0 0 1 0 29.1543l-13.5066 8.1047a16.95 16.95 0 0 1 -8.742 2.4529zm.0044-34.2529a1.0105 1.0105 0 0 0 -.5024.1436.9178.9178 0 0 0 -.5073.87v16.209a1 1 0 0 0 1.5151.8574l13.5064-8.1045a1 1 0 0 0 0-1.7149l-13.5069-8.1045a.9543.9543 0 0 0 -.5049-.1561z"/><path d="m206.1321 353.9494-13.2276 5.2031 13.3911 18.1281a20 20 0 0 1 -7.4706 29.932l-13.5333 6.4607a20.0026 20.0026 0 0 1 -7.3194 1.9091l-8.1312.5283a20 20 0 0 1 -21.2547-18.6607l-.717-11.0342a20 20 0 0 0 -17.956-18.6028l-14.7027-1.4791a20 20 0 0 1 -17.9562-18.6027l-1.2122-18.6574a20 20 0 0 1 9.8725-18.5678l20.1643-11.7749a20 20 0 0 1 26.1722 5.3877l6.21 8.406 27.1725-10.6883a12.0353 12.0353 0 0 1 15.56 6.7745l11.7128 29.779a12.0352 12.0352 0 0 1 -6.7745 15.5594z" fill="#25b1fa"/><path d="m168.5259 424.1538a28.0362 28.0362 0 0 1 -27.9229-26.185l-.7168-11.0347a11.9621 11.9621 0 0 0 -10.7734-11.1616l-14.7031-1.479a27.9127 27.9127 0 0 1 -25.1382-26.0435l-1.2124-18.6582a27.8467 27.8467 0 0 1 13.8209-25.9941l8.0683 13.8164a11.9335 11.9335 0 0 0 -5.9228 11.1406l1.2119 18.6577a11.9621 11.9621 0 0 0 10.7734 11.1611l14.7032 1.479a27.9127 27.9127 0 0 1 25.1381 26.044l.7173 11.0347a11.9982 11.9982 0 0 0 12.7525 11.1962l8.1313-.5283a11.9377 11.9377 0 0 0 4.3911-1.145l13.5337-6.4614a11.999 11.999 0 0 0 4.4824-17.9585l-13.3904-18.1284a8 8 0 0 1 3.5064-12.1983l13.228-5.2031a4.0355 4.0355 0 0 0 2.2578-5.1865l-7.2334-18.39 14.89-5.8564 7.2334 18.39a20.0348 20.0348 0 0 1 -11.2911 25.9326l-3.5288 1.3882 7.1983 9.7451a27.9992 27.9992 0 0 1 -10.4585 41.9048l-13.5332 6.461a27.88 27.88 0 0 1 -10.2471 2.6723l-8.1318.5288c-.6144.0395-1.2272.0595-1.8341.0595z"/><g><path d="m272 136c0 88-112 192-112 192s-112-104-112-192a112 112 0 0 1 224 0z" fill="#fac850"/><path d="m160 336a7.9775 7.9775 0 0 1 -5.4434-2.1377c-1.7119-1.5894-42.2968-39.5019-74.8828-89.4936l13.4038-8.7374c24.627 37.7813 54.7735 69.1714 66.918 81.2208 22.1123-21.9781 104.0044-108.2876 104.0044-180.8521a104 104 0 0 0 -208 0c0 24.2891 9.2334 52.5479 27.4434 83.9912l-13.8457 8.0188c-19.6397-33.9119-29.5977-64.8684-29.5977-92.01a120 120 0 0 1 240 0c0 38.2773-19.3862 83.3037-57.6206 133.8276a542.2163 542.2163 0 0 1 -56.936 64.0347 7.9775 7.9775 0 0 1 -5.4434 2.1377z"/><circle cx="160" cy="144" fill="#fffdf8" r="56"/><path d="m160 208a64 64 0 1 1 64-64 64.0726 64.0726 0 0 1 -64 64zm0-112a48 48 0 1 0 48 48 48.0543 48.0543 0 0 0 -48-48z"/></g><path d="m425.6479 86.3521a238.6233 238.6233 0 0 0 -169.8442-70.3521 244.04 244.04 0 0 0 -24.6137 1.2461l1.621 15.918a227.8466 227.8466 0 0 1 22.9927-1.1641 222.6088 222.6088 0 0 1 152.7754 60.1074l-30.2358 30.2359 11.3134 11.3134 30.2359-30.2358a222.6088 222.6088 0 0 1 60.1074 152.7754q0 4.8228-.1985 9.6069l-36.2283 9.0568a12 12 0 0 1 -14.79-9.9439l-1.2646-8.8555a28 28 0 0 0 -38.1177-22.0376l-32.1348 12.854a22.0965 22.0965 0 0 1 -27.272-9.5117l-7.68-13.44a22.0483 22.0483 0 0 1 3.5449-26.4717l47.7973-47.7974-11.3134-11.3134-47.7974 47.7973a38.0827 38.0827 0 0 0 -6.123 45.7237l7.68 13.44a38.166 38.166 0 0 0 47.106 16.4287l32.1348-12.854a12.0007 12.0007 0 0 1 16.3364 9.4443l1.2646 8.8555a28.0107 28.0107 0 0 0 34.51 23.2041l31.0259-7.7565a221.107 221.107 0 0 1 -22.18 74.008q-2.54 5.06-5.3428 9.992l-67.6885-15.62a38 38 0 0 0 -45.64 28.7837l-2.7573 12.4082a22 22 0 0 1 -26.812 16.5708l-14.1-3.5249a38.2215 38.2215 0 0 0 -40.3472 15.0737l-39.3774 56.2532a224.4855 224.4855 0 0 1 -173.95-282.3631l-15.379-4.415a240.2626 240.2626 0 0 0 363.5167 266.7l-8.8448-13.333a223.1846 223.1846 0 0 1 -123.7744 37.2334 228.2263 228.2263 0 0 1 -23.8423-1.2447l34.7588-49.655a22.1294 22.1294 0 0 1 23.3589-8.7271l14.1 3.5249a38 38 0 0 0 46.312-28.6221l2.7573-12.4086a22 22 0 0 1 26.4229-16.6646l62.3894 14.3976a226.6463 226.6463 0 0 1 -49.2473 52.6776l9.7871 12.6582a242.4477 242.4477 0 0 0 68-82.5171 240.37 240.37 0 0 0 -44.9522-277.46z"/></g></svg>