<svg id="Capa_1" enable-background="new 0 0 512 512" height="512" viewBox="0 0 512 512" width="512" xmlns="http://www.w3.org/2000/svg"><circle cx="256" cy="256" fill="#19cffc" r="256"/><path d="m71.814 189.401 296.641 296.641c27.913-13.671 52.971-32.272 74.04-54.669l-320.582-320.582z" fill="#1ea1e3"/><path d="m512 256c0-34.75-6.924-67.884-19.468-98.095l-39.527 39.527-48.478 5.157-24.755 69.107-23.723 28.88-12.377 77.358 120.102 27.651c30.347-42.078 48.226-93.744 48.226-149.585z" fill="#805142"/><path d="m121.913 110.791-80.302 5.251c-26.313 40.223-41.611 88.304-41.611 139.958 0 72.558 30.187 138.066 78.686 184.651l142.245 2.264v-200.1l-69.391-48.664z" fill="#966857"/><path d="m121.913 110.79-45.384 79.421 45.384 38.881 18.566 57.043 80.452 52.604v-95.924l-69.391-48.664z" fill="#805142"/><path d="m503.486 321.72c-11.687 4.772-24.132 9.231-47.39 9.231-50.027 0-50.027-20.629-100.054-20.629-50.025 0-50.025 20.629-100.049 20.629-50.023 0-50.023-20.629-100.046-20.629-50.024 0-50.024 20.629-100.048 20.629-23.254 0-35.698-4.458-47.383-9.229 29.012 109.539 128.819 190.278 247.484 190.278 118.666 0 218.473-80.739 247.486-190.28z" fill="#4a7aff"/><path d="m256 512c118.666 0 218.473-80.739 247.486-190.28-11.687 4.772-24.132 9.231-47.39 9.231-50.027 0-50.027-20.629-100.054-20.629-50.025 0-50.025 20.629-100.049 20.629-.138 0-.271-.002-.409-.003v181.051c.138.001.277.001.416.001z" fill="#0053bf"/><path d="m461.187 409.109c-1.638.049-3.334.075-5.092.075-50.027 0-50.027-20.629-100.054-20.629-50.025 0-50.025 20.629-100.049 20.629-50.023 0-50.023-20.629-100.046-20.629-50.024 0-50.024 20.629-100.048 20.629-1.755 0-3.448-.026-5.084-.075 46.681 62.459 121.212 102.891 205.186 102.891s158.505-40.432 205.187-102.891z" fill="#4d96ff"/><path d="m256 512c83.974 0 158.505-40.432 205.187-102.891-1.638.049-3.334.075-5.092.075-50.027 0-50.027-20.629-100.054-20.629-50.025 0-50.025 20.629-100.049 20.629-.138 0-.271-.002-.409-.003v102.819z" fill="#4a7aff"/><path d="m499.226 232.5v-56.578c-2.011-6.111-4.245-12.12-6.694-18.018l-39.527 39.527-48.478 5.157-24.755 69.107-23.723 28.88 71.588-21.33 12.99-25.085z" fill="#5e382c"/></svg>